<svg width="160" height="24" fill="none" id="svg-1490805589_6053"><g clip-path="url(#svg-1490805589_6053_a)" fill="#fff"><path d="M0 18.239V1.917a.432.432 0 0 1 .293-.41L4.37.027a.45.45 0 0 1 .544.209c.033.062.05.131.05.201v17.09c0 .463.187.907.52 1.235.332.327.783.511 1.253.511h1.862c.117 0 .23.046.313.128.083.082.13.193.13.309v3.317a.433.433 0 0 1-.13.309.447.447 0 0 1-.313.128h-3.28a5.36 5.36 0 0 1-3.756-1.53A5.199 5.199 0 0 1 0 18.24Zm12.398 3.02a9.396 9.396 0 0 1-2.098-3.064 9.28 9.28 0 0 1 0-7.248 9.396 9.396 0 0 1 2.098-3.064 10.49 10.49 0 0 1 7.091-2.75c2.633 0 5.167.983 7.092 2.75a9.354 9.354 0 0 1 2.112 3.06 9.237 9.237 0 0 1 0 7.255 9.354 9.354 0 0 1-2.112 3.06 10.49 10.49 0 0 1-7.091 2.75 10.49 10.49 0 0 1-7.092-2.75Zm3.688-10.477a5.847 5.847 0 0 0-1.384 3.771 5.85 5.85 0 0 0 1.384 3.772c.434.462.96.831 1.546 1.084a4.697 4.697 0 0 0 3.715 0 4.636 4.636 0 0 0 1.546-1.084 5.848 5.848 0 0 0 1.384-3.771 5.85 5.85 0 0 0-1.384-3.772 4.635 4.635 0 0 0-1.546-1.084 4.697 4.697 0 0 0-3.715 0 4.634 4.634 0 0 0-1.546 1.084Zm14.74 12.258V6.103c0-.116.047-.227.13-.309a.447.447 0 0 1 .313-.128h4.078c.117 0 .23.046.313.128.083.082.13.193.13.309v2.008h.177a5.03 5.03 0 0 1 1.33-1.467 6.977 6.977 0 0 1 4.361-1.501c2.243 0 3.986.64 5.23 1.92 1.244 1.28 1.865 3.143 1.862 5.588v10.39a.433.433 0 0 1-.13.308.447.447 0 0 1-.313.128h-4.078a.446.446 0 0 1-.313-.128.433.433 0 0 1-.13-.309v-9.69c0-1.31-.328-2.301-.975-2.986a3.592 3.592 0 0 0-1.262-.806 3.636 3.636 0 0 0-1.486-.225 3.988 3.988 0 0 0-1.653.33c-.52.226-.985.56-1.361.98a4.759 4.759 0 0 0-1.241 3.387v8.993a.433.433 0 0 1-.13.308.447.447 0 0 1-.313.128h-4.078a.448.448 0 0 1-.42-.253.43.43 0 0 1-.041-.166Zm22.139-1.781a9.435 9.435 0 0 1-2.087-3.067 9.318 9.318 0 0 1 0-7.241 9.435 9.435 0 0 1 2.087-3.067 9.489 9.489 0 0 1 3.18-2.072 9.605 9.605 0 0 1 3.752-.67 9.323 9.323 0 0 1 3.73.65 9.207 9.207 0 0 1 3.149 2.074 9.227 9.227 0 0 1 2.038 3.083 9.116 9.116 0 0 1 .656 3.622v.611a.433.433 0 0 1-.13.31.447.447 0 0 1-.313.127h-13.74a5.035 5.035 0 0 0 1.596 2.968c.396.39.866.698 1.383.907.517.21 1.071.317 1.63.316a5.109 5.109 0 0 0 3.227-1.048c.282-.24.526-.519.723-.83a.44.44 0 0 1 .381-.218h4.432a.45.45 0 0 1 .37.196.432.432 0 0 1 .038.411 9.253 9.253 0 0 1-1.542 2.536C65.633 22.953 63.092 24 59.9 24a9.608 9.608 0 0 1-3.754-.668 9.49 9.49 0 0 1-3.182-2.073Zm2.5-8.608h8.687a4.075 4.075 0 0 0-1.436-2.357 4.26 4.26 0 0 0-2.82-.96 4.373 4.373 0 0 0-2.836.942 4.702 4.702 0 0 0-1.604 2.375h.008Zm15.845 5.063h4.26a.448.448 0 0 1 .38.249 3.5 3.5 0 0 0 .67.903 4.23 4.23 0 0 0 1.436.87 4.28 4.28 0 0 0 1.667.248c2.012 0 3.014-.58 3.014-1.746a.91.91 0 0 0-.142-.507 1.236 1.236 0 0 0-.497-.436c-.235-.127-.443-.24-.673-.332a6.476 6.476 0 0 0-.94-.297 18.08 18.08 0 0 0-.993-.227 44.516 44.516 0 0 1-1.17-.244 58.256 58.256 0 0 0-1.152-.245c-3.727-.777-5.59-2.58-5.59-5.408 0-1.487.68-2.762 2.04-3.824 1.359-1.062 3.22-1.592 5.584-1.59 3.17 0 5.546.967 7.127 2.9.56.676.978 1.455 1.232 2.291a.43.43 0 0 1-.069.4.442.442 0 0 1-.374.172h-4.118a.448.448 0 0 1-.394-.236 2.625 2.625 0 0 0-.514-.637 4.547 4.547 0 0 0-2.908-.873 3.47 3.47 0 0 0-1.879.402c-.179.1-.329.245-.434.42a1.165 1.165 0 0 0-.169.575c0 .138.03.275.089.401a.96.96 0 0 0 .301.35c.143.1.29.194.444.279.191.102.393.184.602.244l.692.227c.261.086.528.156.797.21l.852.175c.239.048.545.109.921.192l.922.192c3.715.818 5.57 2.622 5.567 5.413 0 1.56-.739 2.91-2.216 4.05-1.477 1.141-3.463 1.712-5.957 1.712-3.357 0-5.839-1.048-7.446-3.143a9.362 9.362 0 0 1-1.4-2.554.431.431 0 0 1 .23-.535.449.449 0 0 1 .208-.041ZM89.594 1.506 93.67.026a.45.45 0 0 1 .544.209c.033.062.05.131.05.201v5.239h4.667c.118 0 .23.046.314.127.083.082.13.193.13.31v3.317a.433.433 0 0 1-.13.308.447.447 0 0 1-.314.128h-4.667v7.661c0 .463.187.907.52 1.235.332.327.783.511 1.253.511h3.103c.117 0 .23.046.313.128.083.082.13.193.13.309v3.317a.433.433 0 0 1-.13.309.447.447 0 0 1-.313.128h-4.513a5.36 5.36 0 0 1-3.76-1.534 5.198 5.198 0 0 1-1.558-3.704V1.916a.432.432 0 0 1 .284-.41Zm13.348 19.753a9.404 9.404 0 0 1-2.098-3.064 9.277 9.277 0 0 1 0-7.248 9.404 9.404 0 0 1 2.098-3.064 10.492 10.492 0 0 1 7.092-2.75c2.632 0 5.166.983 7.092 2.75a9.378 9.378 0 0 1 2.112 3.06 9.24 9.24 0 0 1 0 7.255 9.378 9.378 0 0 1-2.112 3.06 10.492 10.492 0 0 1-7.092 2.75c-2.632 0-5.166-.982-7.092-2.75Zm3.688-10.477a5.847 5.847 0 0 0-1.383 3.771c0 1.378.489 2.712 1.383 3.772.434.462.961.831 1.546 1.084a4.701 4.701 0 0 0 3.716 0 4.642 4.642 0 0 0 1.546-1.084 5.847 5.847 0 0 0 1.383-3.771 5.847 5.847 0 0 0-1.383-3.772 4.64 4.64 0 0 0-1.546-1.084 4.7 4.7 0 0 0-3.716 0 4.64 4.64 0 0 0-1.546 1.084Zm14.74 12.258V6.103c0-.116.047-.227.13-.309a.446.446 0 0 1 .313-.128h4.078c.117 0 .23.046.313.128.083.082.13.193.13.309v2.008h.177c.341-.57.793-1.07 1.33-1.467a6.978 6.978 0 0 1 4.361-1.501c2.243 0 3.986.64 5.23 1.92 1.244 1.28 1.865 3.143 1.862 5.588v10.39a.434.434 0 0 1-.13.308.446.446 0 0 1-.313.128h-4.078a.445.445 0 0 1-.313-.128.43.43 0 0 1-.13-.309v-9.69c0-1.31-.328-2.301-.975-2.986a3.588 3.588 0 0 0-1.262-.806 3.636 3.636 0 0 0-1.486-.225 3.987 3.987 0 0 0-1.653.33c-.52.226-.985.56-1.361.98a4.76 4.76 0 0 0-1.241 3.387v8.993a.434.434 0 0 1-.13.308.447.447 0 0 1-.313.128h-4.078a.45.45 0 0 1-.421-.253.433.433 0 0 1-.04-.166Zm22.129-1.781a9.446 9.446 0 0 1-2.086-3.067 9.314 9.314 0 0 1 0-7.241 9.446 9.446 0 0 1 2.086-3.067 9.493 9.493 0 0 1 3.181-2.072 9.601 9.601 0 0 1 3.751-.67 9.324 9.324 0 0 1 3.731.65 9.21 9.21 0 0 1 3.148 2.074 9.223 9.223 0 0 1 2.039 3.083 9.117 9.117 0 0 1 .656 3.622v1.048h-14.183a5.037 5.037 0 0 0 1.595 2.968 4.26 4.26 0 0 0 1.384.907c.517.21 1.071.317 1.63.316a5.11 5.11 0 0 0 3.227-1.048c.282-.24.525-.519.723-.83a.444.444 0 0 1 .381-.218h4.432a.44.44 0 0 1 .441.396.433.433 0 0 1-.033.211 9.26 9.26 0 0 1-1.543 2.536c-1.891 2.096-4.432 3.143-7.623 3.143a9.603 9.603 0 0 1-3.754-.668 9.487 9.487 0 0 1-3.183-2.073Zm2.5-8.608h8.687a4.075 4.075 0 0 0-1.436-2.357 4.26 4.26 0 0 0-2.819-.96 4.371 4.371 0 0 0-2.836.942 4.702 4.702 0 0 0-1.596 2.375Z"></path></g><defs><clipPath id="svg-1490805589_6053_a"><path fill="#fff" d="M0 0h160v24H0z"></path></clipPath></defs></svg>